<?xml version="1.0" encoding="UTF-8" standalone="no"?>
<svg
   xmlns:dc="http://purl.org/dc/elements/1.1/"
   xmlns:cc="http://creativecommons.org/ns#"
   xmlns:rdf="http://www.w3.org/1999/02/22-rdf-syntax-ns#"
   xmlns:svg="http://www.w3.org/2000/svg"
   xmlns="http://www.w3.org/2000/svg"
   xmlns:sodipodi="http://sodipodi.sourceforge.net/DTD/sodipodi-0.dtd"
   xmlns:inkscape="http://www.inkscape.org/namespaces/inkscape"
   version="1.1"
   id="svg833"
   xml:space="preserve"
   width="642.86664"
   height="926.66663"
   viewBox="0 0 642.86664 926.66666"
   sodipodi:docname="transto.svg"
   inkscape:version="1.0.2-2 (e86c870879, 2021-01-15)"><metadata
     id="metadata839"><rdf:RDF><cc:Work
         rdf:about=""><dc:format>image/svg+xml</dc:format><dc:type
           rdf:resource="http://purl.org/dc/dcmitype/StillImage" /><dc:title></dc:title></cc:Work></rdf:RDF></metadata><defs
     id="defs837"><clipPath
       clipPathUnits="userSpaceOnUse"
       id="clipPath849"><path
         d="M 0,0.028 H 595.275 V 841.889 H 0 Z"
         clip-rule="evenodd"
         id="path847" /></clipPath></defs><sodipodi:namedview
     pagecolor="#ffffff"
     bordercolor="#666666"
     borderopacity="1"
     objecttolerance="10"
     gridtolerance="10"
     guidetolerance="10"
     inkscape:pageopacity="0"
     inkscape:pageshadow="2"
     inkscape:window-width="1920"
     inkscape:window-height="986"
     id="namedview835"
     showgrid="false"
     inkscape:zoom="1"
     inkscape:cx="246.76319"
     inkscape:cy="196.14159"
     inkscape:window-x="-11"
     inkscape:window-y="-11"
     inkscape:window-maximized="1"
     inkscape:current-layer="g841"
     inkscape:document-rotation="0"
     fit-margin-top="0"
     fit-margin-left="0"
     fit-margin-right="0"
     fit-margin-bottom="0" /><g
     id="g841"
     inkscape:groupmode="layer"
     inkscape:label="DRL"
     transform="matrix(1.3333333,0,0,-1.3333333,-75.266665,1016.3853)"><rect
       style="fill:#ee41d3;fill-opacity:1;stroke:none;stroke-width:0.992977;stroke-dasharray:1.98598, 1.98598"
       id="rect1147-1"
       width="67.821785"
       height="12.775694"
       x="290.49072"
       y="-671.10297"
       transform="scale(1,-1)" /><rect
       style="fill:#54c1d3;fill-opacity:1;stroke:none;stroke-width:1.61461;stroke-dasharray:3.22921, 3.22921"
       id="rect1145-7"
       width="86.699722"
       height="13.124999"
       x="288.67526"
       y="-689.82727"
       transform="scale(1,-1)" /><rect
       style="fill:#00ff00;stroke:none;stroke-width:0.936237;stroke-dasharray:1.87247, 1.87247"
       id="rect1139-6"
       width="54.855804"
       height="12.513072"
       x="288.50961"
       y="-725.1463"
       transform="scale(1,-1)" /><rect
       style="fill:#d9ff00;fill-opacity:1;stroke:none;stroke-width:1.94183;stroke-dasharray:3.88368, 3.88368"
       id="rect1139-3"
       width="235.9808"
       height="12.513072"
       x="289.25961"
       y="-706.7713"
       transform="scale(1,-1)" /><rect
       style="fill:#ee41d3;fill-opacity:1;stroke:none;stroke-width:0.749999;stroke-dasharray:1.5, 1.5"
       id="rect1147"
       width="13.875"
       height="35.625"
       x="204"
       y="-719.26477"
       transform="scale(1,-1)" /><rect
       style="fill:#54c1d3;fill-opacity:1;stroke:none;stroke-width:0.749999;stroke-dasharray:1.5, 1.5"
       id="rect1145"
       width="6.75"
       height="36.375"
       x="192"
       y="-719.63977"
       transform="scale(1,-1)" /><rect
       style="fill:#d9ff00;fill-opacity:1;stroke:none;stroke-width:1.38601;stroke-dasharray:2.77203, 2.77203"
       id="rect1143"
       width="95.625"
       height="36"
       x="91.125"
       y="-719.63977"
       transform="scale(1,-1)" /><rect
       style="fill:#00ff00;stroke:none;stroke-width:0.749999;stroke-dasharray:1.5, 1.5"
       id="rect1141"
       width="7.0692582"
       height="11.906118"
       x="69.204315"
       y="-732.87439"
       transform="scale(1,-1)" /><rect
       style="fill:#ffaaaa;stroke:none;stroke-width:1.15669;stroke-dasharray:2.31338, 2.31338"
       id="rect1139"
       width="83.730804"
       height="12.513072"
       x="288.00903"
       y="-741.39386"
       transform="scale(1,-1)" /><rect
       style="fill:#ffaaaa;stroke:none;stroke-width:0.749999;stroke-dasharray:1.5, 1.5"
       id="rect1127"
       width="6.6971922"
       height="13.394384"
       x="58.414398"
       y="-746.64087"
       transform="scale(1,-1)" /><g
       id="g843"><g
         id="g845"
         clip-path="url(#clipPath849)"><g
           id="g851"><path
             d="M 56.45,762.039 H 538.6"
             style="fill:none;stroke:#000000;stroke-width:0.5;stroke-linecap:butt;stroke-linejoin:round;stroke-miterlimit:10;stroke-dasharray:none;stroke-opacity:1"
             id="path853" /></g><g
           id="g855"><path
             d="M 56.45,67.539 H 538.6"
             style="fill:none;stroke:#000000;stroke-width:0.5;stroke-linecap:butt;stroke-linejoin:round;stroke-miterlimit:10;stroke-dasharray:none;stroke-opacity:1"
             id="path857" /></g><g
           id="g859"><path
             d="m 56.7,762.289 v -695"
             style="fill:none;stroke:#000000;stroke-width:0.5;stroke-linecap:butt;stroke-linejoin:round;stroke-miterlimit:10;stroke-dasharray:none;stroke-opacity:1"
             id="path861" /></g><g
           id="g863"><text
             transform="matrix(1,0,0,-1,59.6,748.689)"
             style="font-variant:normal;font-weight:normal;font-size:11px;font-family:'Liberation Serif';-inkscape-font-specification:LiberationSerif;writing-mode:lr-tb;fill:#000000;fill-opacity:1;fill-rule:nonzero;stroke:none"
             id="text867"><tspan
               x="0"
               y="0"
               id="tspan865">{</tspan></text></g><g
           id="g869"><text
             transform="matrix(1,0,0,-1,59.6,735.989)"
             style="font-variant:normal;font-weight:normal;font-size:11px;font-family:'Liberation Serif';-inkscape-font-specification:LiberationSerif;writing-mode:lr-tb;fill:#000000;fill-opacity:1;fill-rule:nonzero;stroke:none"
             id="text873"><tspan
               x="0 5.5 8.6899996 11.385"
               y="0"
               sodipodi:role="line"
               id="tspan871">0: {</tspan></text></g><g
           id="g875"><text
             transform="matrix(1,0,0,-1,70.677,723.189)"
             style="font-variant:normal;font-weight:normal;font-size:11px;font-family:'Liberation Serif';-inkscape-font-specification:LiberationSerif;writing-mode:lr-tb;fill:#000000;fill-opacity:1;fill-rule:nonzero;stroke:none"
             id="text879"><tspan
               x="0 5.5 8.5909996 11.385"
               y="0"
               sodipodi:role="line"
               id="tspan877">0: [</tspan></text></g><g
           id="g881"><text
             transform="matrix(1,0,0,-1,87.144,710.489)"
             style="font-variant:normal;font-weight:normal;font-size:11px;font-family:'Liberation Serif';-inkscape-font-specification:LiberationSerif;writing-mode:lr-tb;fill:#000000;fill-opacity:1;fill-rule:nonzero;stroke:none"
             id="text885"><tspan
               x="0 3.6849999 9.1850004 11.979 17.479 22.979 28.566999 34.067001 39.567001 45.067001 50.567001 56.154999 61.654999 67.154999 72.654999 78.154999 83.742996 89.242996 94.742996 100.243 103.037 105.831 111.232 114.026 116.82 122.32 125.114 130.614 133.408 136.103 142.20799 147.092 150.282 154.57201 159.45599 163.14101"
               y="0"
               sodipodi:role="line"
               id="tspan883">(0.3333333333333333, 0, 0.0, False),</tspan></text></g><g
           id="g887"><text
             transform="matrix(1,0,0,-1,87.144,697.689)"
             style="font-variant:normal;font-weight:normal;font-size:11px;font-family:'Liberation Serif';-inkscape-font-specification:LiberationSerif;writing-mode:lr-tb;fill:#000000;fill-opacity:1;fill-rule:nonzero;stroke:none"
             id="text891"><tspan
               x="0 3.6849999 9.1850004 11.979 17.479 22.979 28.566999 34.067001 39.567001 45.067001 50.567001 56.154999 61.654999 67.154999 72.654999 78.154999 83.742996 89.242996 94.742996 100.243 103.037 105.831 111.232 114.026 116.82 122.32 125.114 130.614 133.408 136.103 142.20799 147.092 150.282 154.57201 159.45599 163.14101"
               y="0"
               sodipodi:role="line"
               id="tspan889">(0.3333333333333333, 0, 0.0, False),</tspan></text></g><g
           id="g893"><text
             transform="matrix(1,0,0,-1,87.144,684.989)"
             style="font-variant:normal;font-weight:normal;font-size:11px;font-family:'Liberation Serif';-inkscape-font-specification:LiberationSerif;writing-mode:lr-tb;fill:#000000;fill-opacity:1;fill-rule:nonzero;stroke:none"
             id="text897"><tspan
               x="0 3.6849999 9.1850004 11.979 17.479 22.979 28.566999 34.067001 39.567001 45.067001 50.567001 56.154999 61.654999 67.154999 72.654999 78.154999 83.742996 89.242996 94.742996 100.243 103.037 105.831 111.232 114.026 116.82 122.32 125.114 130.614 133.408 136.103 142.20799 147.092 150.282 154.57201 159.45599 163.14101 166.826"
               y="0"
               sodipodi:role="line"
               id="tspan895">(0.3333333333333333, 4, 0.0, False)],</tspan></text></g><g
           id="g899"><text
             transform="matrix(1,0,0,-1,70.677,659.489)"
             style="font-variant:normal;font-weight:normal;font-size:11px;font-family:'Liberation Serif';-inkscape-font-specification:LiberationSerif;writing-mode:lr-tb;fill:#000000;fill-opacity:1;fill-rule:nonzero;stroke:none"
             id="text903"><tspan
               x="0 5.5 8.5909996 11.385"
               y="0"
               sodipodi:role="line"
               id="tspan901">1: [</tspan></text></g><g
           id="g905"><text
             transform="matrix(1,0,0,-1,87.144,646.689)"
             style="font-variant:normal;font-weight:normal;font-size:11px;font-family:'Liberation Serif';-inkscape-font-specification:LiberationSerif;writing-mode:lr-tb;fill:#000000;fill-opacity:1;fill-rule:nonzero;stroke:none"
             id="text909"><tspan
               x="0 3.6849999 9.1850004 11.979 17.479 22.979 28.566999 34.067001 39.567001 45.067001 50.567001 56.154999 61.654999 67.154999 72.654999 78.154999 83.742996 89.242996 94.742996 100.243 103.037 105.831 111.232 114.026 116.82 122.32 125.114 130.614 133.408 136.103 142.20799 147.092 150.282 154.57201 159.45599 163.14101"
               y="0"
               sodipodi:role="line"
               id="tspan907">(0.3333333333333333, 0, 0.0, False),</tspan></text></g><g
           id="g911"><text
             transform="matrix(1,0,0,-1,87.144,633.989)"
             style="font-variant:normal;font-weight:normal;font-size:11px;font-family:'Liberation Serif';-inkscape-font-specification:LiberationSerif;writing-mode:lr-tb;fill:#000000;fill-opacity:1;fill-rule:nonzero;stroke:none"
             id="text915"><tspan
               x="0 3.6849999 9.1850004 11.979 17.479 22.979 28.566999 34.067001 39.567001 45.067001 50.567001 56.154999 61.654999 67.154999 72.654999 78.154999 83.742996 89.242996 94.742996 100.243 103.037 105.831 111.232 114.026 116.82 122.32 125.114 130.614 133.408 136.103 142.20799 147.092 150.282 154.57201 159.45599 163.14101"
               y="0"
               sodipodi:role="line"
               id="tspan913">(0.3333333333333333, 4, 0.0, False),</tspan></text></g><g
           id="g917"><text
             transform="matrix(1,0,0,-1,87.144,621.189)"
             style="font-variant:normal;font-weight:normal;font-size:11px;font-family:'Liberation Serif';-inkscape-font-specification:LiberationSerif;writing-mode:lr-tb;fill:#000000;fill-opacity:1;fill-rule:nonzero;stroke:none"
             id="text921"><tspan
               x="0 3.6849999 9.1850004 11.979 17.479 22.979 28.566999 34.067001 39.567001 45.067001 50.567001 56.154999 61.654999 67.154999 72.654999 78.154999 83.742996 89.242996 94.742996 100.243 103.037 105.831 111.232 114.026 116.82 122.32 125.114 130.614 133.408 136.103 142.20799 147.092 150.282 154.57201 159.45599 163.14101 166.826"
               y="0"
               sodipodi:role="line"
               id="tspan919">(0.3333333333333333, 1, 0.0, False)],</tspan></text></g><g
           id="g923"><text
             transform="matrix(1,0,0,-1,70.677,595.689)"
             style="font-variant:normal;font-weight:normal;font-size:11px;font-family:'Liberation Serif';-inkscape-font-specification:LiberationSerif;writing-mode:lr-tb;fill:#000000;fill-opacity:1;fill-rule:nonzero;stroke:none"
             id="text927"><tspan
               x="0 5.5 8.5909996 11.385"
               y="0"
               sodipodi:role="line"
               id="tspan925">2: [</tspan></text></g><g
           id="g929"><text
             transform="matrix(1,0,0,-1,87.144,582.989)"
             style="font-variant:normal;font-weight:normal;font-size:11px;font-family:'Liberation Serif';-inkscape-font-specification:LiberationSerif;writing-mode:lr-tb;fill:#000000;fill-opacity:1;fill-rule:nonzero;stroke:none"
             id="text933"><tspan
               x="0 3.6849999 9.1850004 11.979 17.479 22.979 28.566999 34.067001 39.567001 45.067001 50.567001 56.154999 61.654999 67.154999 72.654999 78.154999 83.742996 89.242996 94.742996 100.243 103.037 105.831 111.232 114.026 116.82 122.32 125.114 130.614 133.408 136.103 142.20799 147.092 150.282 154.57201 159.45599 163.14101"
               y="0"
               sodipodi:role="line"
               id="tspan931">(0.3333333333333333, 4, 0.0, False),</tspan></text></g><g
           id="g935"><text
             transform="matrix(1,0,0,-1,87.144,570.189)"
             style="font-variant:normal;font-weight:normal;font-size:11px;font-family:'Liberation Serif';-inkscape-font-specification:LiberationSerif;writing-mode:lr-tb;fill:#000000;fill-opacity:1;fill-rule:nonzero;stroke:none"
             id="text939"><tspan
               x="0 3.6849999 9.1850004 11.979 17.479 22.979 28.566999 34.067001 39.567001 45.067001 50.567001 56.154999 61.654999 67.154999 72.654999 78.154999 83.742996 89.242996 94.742996 100.243 103.037 105.831 111.232 114.026 116.82 122.32 125.114 130.614 133.408 136.103 142.20799 147.092 150.282 154.57201 159.45599 163.14101"
               y="0"
               sodipodi:role="line"
               id="tspan937">(0.3333333333333333, 1, 0.0, False),</tspan></text></g><g
           id="g941"><text
             transform="matrix(1,0,0,-1,87.144,557.489)"
             style="font-variant:normal;font-weight:normal;font-size:11px;font-family:'Liberation Serif';-inkscape-font-specification:LiberationSerif;writing-mode:lr-tb;fill:#000000;fill-opacity:1;fill-rule:nonzero;stroke:none"
             id="text945"><tspan
               x="0 3.6849999 9.1850004 11.979 17.479 22.979 28.566999 34.067001 39.567001 45.067001 50.567001 56.154999 61.654999 67.154999 72.654999 78.154999 83.742996 89.242996 94.742996 100.243 103.037 105.831 111.232 114.026 116.82 122.32 125.114 130.614 133.408 136.103 142.20799 147.092 150.282 154.57201 159.45599 163.14101 166.826"
               y="0"
               sodipodi:role="line"
               id="tspan943">(0.3333333333333333, 0, 0.0, False)],</tspan></text></g><g
           id="g947"><text
             transform="matrix(1,0,0,-1,70.677,531.989)"
             style="font-variant:normal;font-weight:normal;font-size:11px;font-family:'Liberation Serif';-inkscape-font-specification:LiberationSerif;writing-mode:lr-tb;fill:#000000;fill-opacity:1;fill-rule:nonzero;stroke:none"
             id="text951"><tspan
               x="0 5.5 8.5909996 11.385"
               y="0"
               sodipodi:role="line"
               id="tspan949">3: [</tspan></text></g><g
           id="g953"><text
             transform="matrix(1,0,0,-1,87.144,519.189)"
             style="font-variant:normal;font-weight:normal;font-size:11px;font-family:'Liberation Serif';-inkscape-font-specification:LiberationSerif;writing-mode:lr-tb;fill:#000000;fill-opacity:1;fill-rule:nonzero;stroke:none"
             id="text957"><tspan
               x="0 3.6849999 9.1850004 11.979 17.479 22.979 28.566999 34.067001 39.567001 45.067001 50.567001 56.154999 61.654999 67.154999 72.654999 78.154999 83.742996 89.242996 94.742996 100.243 103.037 105.831 111.232 114.026 116.82 122.32 125.114 130.614 133.408 136.103 142.20799 147.092 150.282 154.57201 159.45599 163.14101"
               y="0"
               sodipodi:role="line"
               id="tspan955">(0.3333333333333333, 1, 0.0, False),</tspan></text></g><g
           id="g959"><text
             transform="matrix(1,0,0,-1,87.144,506.489)"
             style="font-variant:normal;font-weight:normal;font-size:11px;font-family:'Liberation Serif';-inkscape-font-specification:LiberationSerif;writing-mode:lr-tb;fill:#000000;fill-opacity:1;fill-rule:nonzero;stroke:none"
             id="text963"><tspan
               x="0 3.6849999 9.1850004 11.979 17.479 22.979 28.566999 34.067001 39.567001 45.067001 50.567001 56.154999 61.654999 67.154999 72.654999 78.154999 83.742996 89.242996 94.742996 100.243 103.037 105.831 111.232 114.026 116.82 122.32 125.114 130.614 133.408 136.103 142.20799 147.092 150.282 154.57201 159.45599 163.14101"
               y="0"
               sodipodi:role="line"
               id="tspan961">(0.3333333333333333, 0, 0.0, False),</tspan></text></g><g
           id="g965"><text
             transform="matrix(1,0,0,-1,87.144,493.689)"
             style="font-variant:normal;font-weight:normal;font-size:11px;font-family:'Liberation Serif';-inkscape-font-specification:LiberationSerif;writing-mode:lr-tb;fill:#000000;fill-opacity:1;fill-rule:nonzero;stroke:none"
             id="text969"><tspan
               x="0 3.6849999 9.1850004 11.979 17.479 22.979 28.566999 34.067001 39.567001 45.067001 50.567001 56.154999 61.654999 67.154999 72.654999 78.154999 83.742996 89.242996 94.742996 100.243 103.037 105.831 111.232 114.026 116.82 122.32 125.114 130.614 133.408 136.103 142.20799 147.092 150.282 154.57201 159.45599 163.14101 166.826 172.117"
               y="0"
               sodipodi:role="line"
               id="tspan967">(0.3333333333333333, 0, 0.0, False)]},</tspan></text></g><g
           id="g971"><text
             transform="matrix(1,0,0,-1,59.6,480.989)"
             style="font-variant:normal;font-weight:normal;font-size:11px;font-family:'Liberation Serif';-inkscape-font-specification:LiberationSerif;writing-mode:lr-tb;fill:#000000;fill-opacity:1;fill-rule:nonzero;stroke:none"
             id="text975"><tspan
               x="0"
               y="0"
               id="tspan973">.</tspan></text></g><g
           id="g977"><text
             transform="matrix(1,0,0,-1,59.6,468.189)"
             style="font-variant:normal;font-weight:normal;font-size:11px;font-family:'Liberation Serif';-inkscape-font-specification:LiberationSerif;writing-mode:lr-tb;fill:#000000;fill-opacity:1;fill-rule:nonzero;stroke:none"
             id="text981"><tspan
               x="0"
               y="0"
               id="tspan979">.</tspan></text></g><g
           id="g983"><text
             transform="matrix(1,0,0,-1,59.6,455.489)"
             style="font-variant:normal;font-weight:normal;font-size:11px;font-family:'Liberation Serif';-inkscape-font-specification:LiberationSerif;writing-mode:lr-tb;fill:#000000;fill-opacity:1;fill-rule:nonzero;stroke:none"
             id="text987"><tspan
               x="0"
               y="0"
               id="tspan985">.</tspan></text></g><g
           id="g989"><text
             transform="matrix(1,0,0,-1,59.6,442.689)"
             style="font-variant:normal;font-weight:normal;font-size:11px;font-family:'Liberation Serif';-inkscape-font-specification:LiberationSerif;writing-mode:lr-tb;fill:#000000;fill-opacity:1;fill-rule:nonzero;stroke:none"
             id="text993"><tspan
               x="0 5.5 11 14.19 16.885"
               y="0"
               sodipodi:role="line"
               id="tspan991">14: {</tspan></text></g><g
           id="g995"><text
             transform="matrix(1,0,0,-1,70.677,429.989)"
             style="font-variant:normal;font-weight:normal;font-size:11px;font-family:'Liberation Serif';-inkscape-font-specification:LiberationSerif;writing-mode:lr-tb;fill:#000000;fill-opacity:1;fill-rule:nonzero;stroke:none"
             id="text999"><tspan
               x="0 5.5 8.5909996 11.385"
               y="0"
               sodipodi:role="line"
               id="tspan997">0: [</tspan></text></g><g
           id="g1001"><text
             transform="matrix(1,0,0,-1,84.449,417.189)"
             style="font-variant:normal;font-weight:normal;font-size:11px;font-family:'Liberation Serif';-inkscape-font-specification:LiberationSerif;writing-mode:lr-tb;fill:#000000;fill-opacity:1;fill-rule:nonzero;stroke:none"
             id="text1005"><tspan
               x="0 3.6849999 9.1850004 11.979 17.479 22.979 28.479 33.979 39.479 45.067001 50.567001 56.067001 61.567001 67.067001 72.654999 78.154999 83.654999 89.154999 94.654999 100.155 102.949 105.743 111.243 116.743 119.537 122.331 127.732 130.526 136.026 138.82001 141.614 147.71899 152.603 155.694 159.98399 164.978 168.66299"
               y="0"
               sodipodi:role="line"
               id="tspan1003">(0.3333333333333333, 10, 0.0, False),</tspan></text></g><g
           id="g1007"><text
             transform="matrix(1,0,0,-1,84.449,404.489)"
             style="font-variant:normal;font-weight:normal;font-size:11px;font-family:'Liberation Serif';-inkscape-font-specification:LiberationSerif;writing-mode:lr-tb;fill:#000000;fill-opacity:1;fill-rule:nonzero;stroke:none"
             id="text1011"><tspan
               x="0 3.6849999 9.1850004 11.979 17.479 22.979 28.479 33.979 39.479 45.067001 50.567001 56.067001 61.567001 67.067001 72.654999 78.154999 83.654999 89.154999 94.654999 100.155 102.949 105.743 111.243 116.743 119.537 122.331 127.732 130.526 136.026 138.82001 141.614 147.71899 152.603 155.694 159.98399 164.978 168.66299"
               y="0"
               sodipodi:role="line"
               id="tspan1009">(0.3333333333333333, 13, 0.0, False),</tspan></text></g><g
           id="g1013"><text
             transform="matrix(1,0,0,-1,84.449,391.689)"
             style="font-variant:normal;font-weight:normal;font-size:11px;font-family:'Liberation Serif';-inkscape-font-specification:LiberationSerif;writing-mode:lr-tb;fill:#000000;fill-opacity:1;fill-rule:nonzero;stroke:none"
             id="text1017"><tspan
               x="0 3.6849999 9.1850004 11.979 17.479 22.979 28.479 33.979 39.479 45.067001 50.567001 56.067001 61.567001 67.067001 72.654999 78.154999 83.654999 89.154999 94.654999 100.155 102.949 105.743 111.243 116.743 119.537 122.331 127.732 130.526 136.026 138.82001 141.614 147.71899 152.603 155.694 159.98399 164.978 168.66299 172.34801"
               y="0"
               sodipodi:role="line"
               id="tspan1015">(0.3333333333333333, 14, 0.0, False)],</tspan></text></g><g
           id="g1019"><text
             transform="matrix(1,0,0,-1,73.372,366.189)"
             style="font-variant:normal;font-weight:normal;font-size:11px;font-family:'Liberation Serif';-inkscape-font-specification:LiberationSerif;writing-mode:lr-tb;fill:#000000;fill-opacity:1;fill-rule:nonzero;stroke:none"
             id="text1023"><tspan
               x="0 5.5 8.6899996 11.385"
               y="0"
               sodipodi:role="line"
               id="tspan1021">1: [</tspan></text></g><g
           id="g1025"><text
             transform="matrix(1,0,0,-1,84.449,353.489)"
             style="font-variant:normal;font-weight:normal;font-size:11px;font-family:'Liberation Serif';-inkscape-font-specification:LiberationSerif;writing-mode:lr-tb;fill:#000000;fill-opacity:1;fill-rule:nonzero;stroke:none"
             id="text1029"><tspan
               x="0 3.6849999 9.1850004 11.979 17.479 22.979 28.479 33.979 39.479 45.067001 50.567001 56.067001 61.567001 67.067001 72.654999 78.154999 83.654999 89.154999 94.654999 100.155 102.949 105.743 111.243 116.743 119.537 122.331 127.732 130.526 136.026 138.82001 141.614 147.71899 152.603 155.694 159.98399 164.978 168.66299"
               y="0"
               sodipodi:role="line"
               id="tspan1027">(0.3333333333333333, 13, 0.0, False),</tspan></text></g><g
           id="g1031"><text
             transform="matrix(1,0,0,-1,84.449,340.689)"
             style="font-variant:normal;font-weight:normal;font-size:11px;font-family:'Liberation Serif';-inkscape-font-specification:LiberationSerif;writing-mode:lr-tb;fill:#000000;fill-opacity:1;fill-rule:nonzero;stroke:none"
             id="text1035"><tspan
               x="0 3.6849999 9.1850004 11.979 17.479 22.979 28.479 33.979 39.479 45.067001 50.567001 56.067001 61.567001 67.067001 72.654999 78.154999 83.654999 89.154999 94.654999 100.155 102.949 105.743 111.243 116.743 119.537 122.331 127.732 130.526 136.026 138.82001 141.614 147.71899 152.603 155.694 159.98399 164.978 168.66299"
               y="0"
               sodipodi:role="line"
               id="tspan1033">(0.3333333333333333, 14, 0.0, False),</tspan></text></g><g
           id="g1037"><text
             transform="matrix(1,0,0,-1,84.449,327.989)"
             style="font-variant:normal;font-weight:normal;font-size:11px;font-family:'Liberation Serif';-inkscape-font-specification:LiberationSerif;writing-mode:lr-tb;fill:#000000;fill-opacity:1;fill-rule:nonzero;stroke:none"
             id="text1041"><tspan
               x="0 3.6849999 9.1850004 11.979 17.479 22.979 28.479 33.979 39.479 45.067001 50.567001 56.067001 61.567001 67.067001 72.654999 78.154999 83.654999 89.154999 94.654999 100.155 102.949 105.743 111.243 116.743 119.537 122.331 127.732 130.526 136.026 138.82001 141.317 147.71899 151.40401 156.90401 161.78799 165.57201 169.257"
               y="0"
               sodipodi:role="line"
               id="tspan1039">(0.3333333333333333, 15, 1.0, True)],</tspan></text></g><g
           id="g1043"><text
             transform="matrix(1,0,0,-1,73.372,302.489)"
             style="font-variant:normal;font-weight:normal;font-size:11px;font-family:'Liberation Serif';-inkscape-font-specification:LiberationSerif;writing-mode:lr-tb;fill:#000000;fill-opacity:1;fill-rule:nonzero;stroke:none"
             id="text1047"><tspan
               x="0 5.5 8.6899996 11.385"
               y="0"
               sodipodi:role="line"
               id="tspan1045">2: [</tspan></text></g><g
           id="g1049"><text
             transform="matrix(1,0,0,-1,84.449,289.689)"
             style="font-variant:normal;font-weight:normal;font-size:11px;font-family:'Liberation Serif';-inkscape-font-specification:LiberationSerif;writing-mode:lr-tb;fill:#000000;fill-opacity:1;fill-rule:nonzero;stroke:none"
             id="text1053"><tspan
               x="0 3.6849999 9.1850004 11.979 17.479 22.979 28.479 33.979 39.479 45.067001 50.567001 56.067001 61.567001 67.067001 72.654999 78.154999 83.654999 89.154999 94.654999 100.155 102.949 105.743 111.243 116.743 119.537 122.331 127.732 130.526 136.026 138.82001 141.614 147.71899 152.603 155.694 159.98399 164.978 168.66299"
               y="0"
               sodipodi:role="line"
               id="tspan1051">(0.3333333333333333, 14, 0.0, False),</tspan></text></g><g
           id="g1055"><text
             transform="matrix(1,0,0,-1,84.449,276.989)"
             style="font-variant:normal;font-weight:normal;font-size:11px;font-family:'Liberation Serif';-inkscape-font-specification:LiberationSerif;writing-mode:lr-tb;fill:#000000;fill-opacity:1;fill-rule:nonzero;stroke:none"
             id="text1059"><tspan
               x="0 3.6849999 9.1850004 11.979 17.479 22.979 28.479 33.979 39.479 45.067001 50.567001 56.067001 61.567001 67.067001 72.654999 78.154999 83.654999 89.154999 94.654999 100.155 102.949 105.743 111.243 116.743 119.537 122.331 127.732 130.526 136.026 138.82001 141.317 147.71899 151.40401 156.90401 161.78799 165.47301"
               y="0"
               sodipodi:role="line"
               id="tspan1057">(0.3333333333333333, 15, 1.0, True),</tspan></text></g><g
           id="g1061"><text
             transform="matrix(1,0,0,-1,84.449,264.189)"
             style="font-variant:normal;font-weight:normal;font-size:11px;font-family:'Liberation Serif';-inkscape-font-specification:LiberationSerif;writing-mode:lr-tb;fill:#000000;fill-opacity:1;fill-rule:nonzero;stroke:none"
             id="text1065"><tspan
               x="0 3.6849999 9.1850004 11.979 17.479 22.979 28.479 33.979 39.479 45.067001 50.567001 56.067001 61.567001 67.067001 72.654999 78.154999 83.654999 89.154999 94.654999 100.155 102.949 105.743 111.243 116.743 119.537 122.331 127.732 130.526 136.026 138.82001 141.614 147.71899 152.603 155.694 159.98399 164.978 168.66299 172.34801"
               y="0"
               sodipodi:role="line"
               id="tspan1063">(0.3333333333333333, 10, 0.0, False)],</tspan></text></g><g
           id="g1067"><text
             transform="matrix(1,0,0,-1,73.372,238.689)"
             style="font-variant:normal;font-weight:normal;font-size:11px;font-family:'Liberation Serif';-inkscape-font-specification:LiberationSerif;writing-mode:lr-tb;fill:#000000;fill-opacity:1;fill-rule:nonzero;stroke:none"
             id="text1071"><tspan
               x="0 5.5 8.6899996 11.385"
               y="0"
               sodipodi:role="line"
               id="tspan1069">3: [</tspan></text></g><g
           id="g1073"><text
             transform="matrix(1,0,0,-1,84.449,225.989)"
             style="font-variant:normal;font-weight:normal;font-size:11px;font-family:'Liberation Serif';-inkscape-font-specification:LiberationSerif;writing-mode:lr-tb;fill:#000000;fill-opacity:1;fill-rule:nonzero;stroke:none"
             id="text1077"><tspan
               x="0 3.6849999 9.1850004 11.979 17.479 22.979 28.479 33.979 39.479 45.067001 50.567001 56.067001 61.567001 67.067001 72.654999 78.154999 83.654999 89.154999 94.654999 100.155 102.949 105.743 111.243 116.743 119.537 122.331 127.732 130.526 136.026 138.82001 141.317 147.71899 151.40401 156.90401 161.78799 165.47301"
               y="0"
               sodipodi:role="line"
               id="tspan1075">(0.3333333333333333, 15, 1.0, True),</tspan></text></g><g
           id="g1079"><text
             transform="matrix(1,0,0,-1,84.449,213.189)"
             style="font-variant:normal;font-weight:normal;font-size:11px;font-family:'Liberation Serif';-inkscape-font-specification:LiberationSerif;writing-mode:lr-tb;fill:#000000;fill-opacity:1;fill-rule:nonzero;stroke:none"
             id="text1083"><tspan
               x="0 3.6849999 9.1850004 11.979 17.479 22.979 28.479 33.979 39.479 45.067001 50.567001 56.067001 61.567001 67.067001 72.654999 78.154999 83.654999 89.154999 94.654999 100.155 102.949 105.743 111.243 116.743 119.537 122.331 127.732 130.526 136.026 138.82001 141.614 147.71899 152.603 155.694 159.98399 164.978 168.66299"
               y="0"
               sodipodi:role="line"
               id="tspan1081">(0.3333333333333333, 10, 0.0, False),</tspan></text></g><g
           id="g1085"><text
             transform="matrix(1,0,0,-1,84.449,200.489)"
             style="font-variant:normal;font-weight:normal;font-size:11px;font-family:'Liberation Serif';-inkscape-font-specification:LiberationSerif;writing-mode:lr-tb;fill:#000000;fill-opacity:1;fill-rule:nonzero;stroke:none"
             id="text1089"><tspan
               x="0 3.6849999 9.1850004 11.979 17.479 22.979 28.479 33.979 39.479 45.067001 50.567001 56.067001 61.567001 67.067001 72.654999 78.154999 83.654999 89.154999 94.654999 100.155 102.949 105.743 111.243 116.743 119.537 122.331 127.732 130.526 136.026 138.82001 141.614 147.71899 152.603 155.694 159.98399 164.978 168.66299 172.34801 177.63901"
               y="0"
               sodipodi:role="line"
               id="tspan1087">(0.3333333333333333, 13, 0.0, False)]},</tspan></text></g><g
           id="g1091"><text
             transform="matrix(1,0,0,-1,59.6,174.989)"
             style="font-variant:normal;font-weight:normal;font-size:11px;font-family:'Liberation Serif';-inkscape-font-specification:LiberationSerif;writing-mode:lr-tb;fill:#000000;fill-opacity:1;fill-rule:nonzero;stroke:none"
             id="text1095"><tspan
               x="0 5.5 11 14.19 16.885"
               y="0"
               sodipodi:role="line"
               id="tspan1093">15: {</tspan></text></g><g
           id="g1097"><text
             transform="matrix(1,0,0,-1,73.372,162.189)"
             style="font-variant:normal;font-weight:normal;font-size:11px;font-family:'Liberation Serif';-inkscape-font-specification:LiberationSerif;writing-mode:lr-tb;fill:#000000;fill-opacity:1;fill-rule:nonzero;stroke:none"
             id="text1101"><tspan
               x="0 5.5 8.6899996 11.385 15.07 18.754999 24.254999 27.049 32.549 35.342999 38.137001 43.637001 49.137001 51.931 54.625999 60.125999 62.919998 65.417 71.819 75.503998 81.003998 85.888 89.671997 93.357002"
               y="0"
               sodipodi:role="line"
               id="tspan1099">0: [(1.0, 15, 0, True)],</tspan></text></g><g
           id="g1103"><text
             transform="matrix(1,0,0,-1,73.372,136.689)"
             style="font-variant:normal;font-weight:normal;font-size:11px;font-family:'Liberation Serif';-inkscape-font-specification:LiberationSerif;writing-mode:lr-tb;fill:#000000;fill-opacity:1;fill-rule:nonzero;stroke:none"
             id="text1107"><tspan
               x="0 5.5 8.6899996 11.385 15.07 18.754999 24.254999 27.049 32.549 35.342999 38.137001 43.637001 49.137001 51.931 54.625999 60.125999 62.919998 65.417 71.819 75.503998 81.003998 85.888 89.671997 93.357002"
               y="0"
               sodipodi:role="line"
               id="tspan1105">1: [(1.0, 15, 0, True)],</tspan></text></g><g
           id="g1109"><text
             transform="matrix(1,0,0,-1,73.372,111.189)"
             style="font-variant:normal;font-weight:normal;font-size:11px;font-family:'Liberation Serif';-inkscape-font-specification:LiberationSerif;writing-mode:lr-tb;fill:#000000;fill-opacity:1;fill-rule:nonzero;stroke:none"
             id="text1113"><tspan
               x="0 5.5 8.6899996 11.385 15.07 18.754999 24.254999 27.049 32.549 35.342999 38.137001 43.637001 49.137001 51.931 54.625999 60.125999 62.919998 65.417 71.819 75.503998 81.003998 85.888 89.671997 93.357002"
               y="0"
               sodipodi:role="line"
               id="tspan1111">2: [(1.0, 15, 0, True)],</tspan></text></g><g
           id="g1115"><text
             transform="matrix(1,0,0,-1,73.372,85.689)"
             style="font-variant:normal;font-weight:normal;font-size:11px;font-family:'Liberation Serif';-inkscape-font-specification:LiberationSerif;writing-mode:lr-tb;fill:#000000;fill-opacity:1;fill-rule:nonzero;stroke:none"
             id="text1119"><tspan
               x="0 5.5 8.6899996 11.385 15.07 18.754999 24.254999 27.049 32.549 35.342999 38.137001 43.637001 49.137001 51.931 54.625999 60.125999 62.919998 65.417 71.819 75.503998 81.003998 85.888 89.671997 93.357002"
               y="0"
               sodipodi:role="line"
               id="tspan1117">3: [(1.0, 15, 0, True)]}</tspan></text></g><g
           id="g1121"><text
             transform="matrix(1,0,0,-1,59.6,72.989)"
             style="font-variant:normal;font-weight:normal;font-size:11px;font-family:'Liberation Serif';-inkscape-font-specification:LiberationSerif;writing-mode:lr-tb;fill:#000000;fill-opacity:1;fill-rule:nonzero;stroke:none"
             id="text1125"><tspan
               x="0"
               y="0"
               id="tspan1123">}</tspan></text></g></g></g><text
       xml:space="preserve"
       style="font-style:normal;font-weight:normal;font-size:14px;line-height:1.25;font-family:sans-serif;fill:#280b0b;fill-opacity:1;stroke:none;stroke-width:0.75"
       x="291.103"
       y="-731.60559"
       id="text1131"
       transform="scale(1,-1)"><tspan
         sodipodi:role="line"
         id="tspan1129"
         x="291.103"
         y="-731.60559"
         style="font-style:normal;font-variant:normal;font-weight:normal;font-stretch:normal;font-size:10px;font-family:sans-serif;-inkscape-font-specification:'sans-serif, Normal';font-variant-ligatures:normal;font-variant-caps:normal;font-variant-numeric:normal;font-variant-east-asian:normal;fill:#280b0b;stroke-width:0.75">St : état source</tspan><tspan
         sodipodi:role="line"
         x="291.103"
         y="-714.10559"
         style="font-style:normal;font-variant:normal;font-weight:normal;font-stretch:normal;font-size:10px;font-family:sans-serif;-inkscape-font-specification:'sans-serif, Normal';font-variant-ligatures:normal;font-variant-caps:normal;font-variant-numeric:normal;font-variant-east-asian:normal;fill:#280b0b;stroke-width:0.75"
         id="tspan1183">At : action</tspan><tspan
         sodipodi:role="line"
         x="291.103"
         y="-696.60559"
         style="font-style:normal;font-variant:normal;font-weight:normal;font-stretch:normal;font-size:10px;font-family:sans-serif;-inkscape-font-specification:'sans-serif, Normal';font-variant-ligatures:normal;font-variant-caps:normal;font-variant-numeric:normal;font-variant-east-asian:normal;fill:#280b0b;stroke-width:0.75"
         id="tspan1149">probabilité que l'action aboutisse à l'état cible</tspan><tspan
         sodipodi:role="line"
         x="291.103"
         y="-679.10559"
         style="font-style:normal;font-variant:normal;font-weight:normal;font-stretch:normal;font-size:10px;font-family:sans-serif;-inkscape-font-specification:'sans-serif, Normal';font-variant-ligatures:normal;font-variant-caps:normal;font-variant-numeric:normal;font-variant-east-asian:normal;fill:#280b0b;stroke-width:0.75"
         id="tspan1151">St+1 : état cible</tspan><tspan
         sodipodi:role="line"
         x="291.103"
         y="-661.60559"
         style="font-style:normal;font-variant:normal;font-weight:normal;font-stretch:normal;font-size:10px;font-family:sans-serif;-inkscape-font-specification:'sans-serif, Normal';font-variant-ligatures:normal;font-variant-caps:normal;font-variant-numeric:normal;font-variant-east-asian:normal;fill:#280b0b;stroke-width:0.75"
         id="tspan1153">récompense</tspan><tspan
         sodipodi:role="line"
         x="291.103"
         y="-644.10559"
         style="font-style:normal;font-variant:normal;font-weight:normal;font-stretch:normal;font-size:10px;font-family:sans-serif;-inkscape-font-specification:'sans-serif, Normal';font-variant-ligatures:normal;font-variant-caps:normal;font-variant-numeric:normal;font-variant-east-asian:normal;fill:#280b0b;stroke-width:0.75"
         id="tspan1155">état final OUI/NON</tspan></text><rect
       style="fill:#002200;fill-opacity:0.293303;stroke:none;stroke-width:0.749999;stroke-dasharray:1.5, 1.5"
       id="rect1258"
       width="24.75"
       height="35.625"
       x="223.125"
       y="-719.26477"
       transform="scale(1,-1)" /><rect
       style="fill:#002200;fill-opacity:0.293303;stroke:none;stroke-width:0.960338;stroke-dasharray:1.92068, 1.92068"
       id="rect1258-8"
       width="96.375"
       height="14.999999"
       x="289.5"
       y="-654.20227"
       transform="scale(1,-1)" /></g></svg>
