<?xml version="1.0" encoding="UTF-8" standalone="no"?>
<svg
   xmlns:dc="http://purl.org/dc/elements/1.1/"
   xmlns:cc="http://creativecommons.org/ns#"
   xmlns:rdf="http://www.w3.org/1999/02/22-rdf-syntax-ns#"
   xmlns:svg="http://www.w3.org/2000/svg"
   xmlns="http://www.w3.org/2000/svg"
   xmlns:sodipodi="http://sodipodi.sourceforge.net/DTD/sodipodi-0.dtd"
   xmlns:inkscape="http://www.inkscape.org/namespaces/inkscape"
   version="1.1"
   id="svg833"
   xml:space="preserve"
   width="642.86664"
   height="431.86667"
   viewBox="0 0 642.86664 431.86669"
   sodipodi:docname="trans.svg"
   inkscape:version="1.0.2-2 (e86c870879, 2021-01-15)"><metadata
     id="metadata839"><rdf:RDF><cc:Work
         rdf:about=""><dc:format>image/svg+xml</dc:format><dc:type
           rdf:resource="http://purl.org/dc/dcmitype/StillImage" /><dc:title></dc:title></cc:Work></rdf:RDF></metadata><defs
     id="defs837"><clipPath
       clipPathUnits="userSpaceOnUse"
       id="clipPath849"><path
         d="M 0,0.028 H 595.275 V 841.889 H 0 Z"
         clip-rule="evenodd"
         id="path847" /></clipPath></defs><sodipodi:namedview
     pagecolor="#ffffff"
     bordercolor="#666666"
     borderopacity="1"
     objecttolerance="10"
     gridtolerance="10"
     guidetolerance="10"
     inkscape:pageopacity="0"
     inkscape:pageshadow="2"
     inkscape:window-width="1920"
     inkscape:window-height="986"
     id="namedview835"
     showgrid="false"
     fit-margin-top="0"
     fit-margin-left="0"
     fit-margin-right="0"
     fit-margin-bottom="0"
     inkscape:zoom="2.0157702"
     inkscape:cx="168.80806"
     inkscape:cy="80.478257"
     inkscape:window-x="-11"
     inkscape:window-y="-11"
     inkscape:window-maximized="1"
     inkscape:current-layer="g841" /><g
     id="g841"
     inkscape:groupmode="layer"
     inkscape:label="DRL"
     transform="matrix(1.3333333,0,0,-1.3333333,-75.266665,598.25199)"><rect
       style="fill:#ee41d3;fill-opacity:1;stroke:none;stroke-width:0.92709;stroke-dasharray:1.8542, 1.8542"
       id="rect1147-1-7"
       width="13.872183"
       height="54.447113"
       x="131.55452"
       y="-431.63669"
       transform="scale(1,-1)" /><rect
       style="fill:#54c1d3;fill-opacity:1;stroke:none;stroke-width:0.898603;stroke-dasharray:1.7972, 1.7972"
       id="rect1145-7-7"
       width="6.7054839"
       height="52.564018"
       x="118.02281"
       y="-430.32309"
       transform="scale(1,-1)" /><rect
       style="fill:#d9ff00;fill-opacity:1;stroke:none;stroke-width:0.952598;stroke-dasharray:1.90521, 1.90521"
       id="rect1139-3-7"
       width="13.485203"
       height="52.696224"
       x="98.820145"
       y="-430.01709"
       transform="scale(1,-1)" /><rect
       style="fill:#00ff00;stroke:none;stroke-width:0.879436;stroke-dasharray:1.75887, 1.75887"
       id="rect1139-6-6"
       width="10.95199"
       height="55.30069"
       x="76.646576"
       y="-430.76126"
       transform="scale(1,-1)" /><rect
       style="fill:#ffaaaa;stroke:none;stroke-width:0.415531;stroke-dasharray:0.831062, 0.831062"
       id="rect1139-5"
       width="10.805824"
       height="12.513072"
       x="59.232548"
       y="-431.50537"
       transform="scale(1,-1)" /><g
       id="g965"><path
         d="M 56.45,448.439 H 538.6"
         style="fill:none;stroke:#000000;stroke-width:0.5;stroke-linecap:butt;stroke-linejoin:round;stroke-miterlimit:10;stroke-dasharray:none;stroke-opacity:1"
         id="path967" /></g><g
       id="g969"><path
         d="M 56.45,125.039 H 538.6"
         style="fill:none;stroke:#000000;stroke-width:0.5;stroke-linecap:butt;stroke-linejoin:round;stroke-miterlimit:10;stroke-dasharray:none;stroke-opacity:1"
         id="path971" /></g><g
       id="g973"><path
         d="m 56.7,448.689 v -323.9"
         style="fill:none;stroke:#000000;stroke-width:0.5;stroke-linecap:butt;stroke-linejoin:round;stroke-miterlimit:10;stroke-dasharray:none;stroke-opacity:1"
         id="path975" /></g><g
       id="g977"><text
         transform="matrix(1,0,0,-1,59.6,434.289)"
         style="font-variant:normal;font-weight:normal;font-size:12px;font-family:'Liberation Serif';-inkscape-font-specification:LiberationSerif;writing-mode:lr-tb;fill:#000000;fill-opacity:1;fill-rule:nonzero;stroke:none"
         id="text981"><tspan
           x="0"
           y="0"
           id="tspan979">{</tspan></text></g><g
       id="g983"><text
         transform="matrix(1,0,0,-1,59.6,420.489)"
         style="font-variant:normal;font-weight:normal;font-size:12px;font-family:'Liberation Serif';-inkscape-font-specification:LiberationSerif;writing-mode:lr-tb;fill:#000000;fill-opacity:1;fill-rule:nonzero;stroke:none"
         id="text987"><tspan
           x="0 6 9.3839998 12.384 18.084 24.167999 27.468 30.468 34.464001 38.363998 44.363998 47.363998 53.363998 56.363998 59.363998 65.363998 68.363998 71.363998 77.363998 80.363998 86.363998 89.363998 92.363998 99.047997 104.352 107.652 112.344 117.648 121.644 125.64"
           y="0"
           sodipodi:role="line"
           id="tspan985">0: {0: [(1.0, 0, 0.0, False)],</tspan></text></g><g
       id="g989"><text
         transform="matrix(1,0,0,-1,77.6,406.689)"
         style="font-variant:normal;font-weight:normal;font-size:12px;font-family:'Liberation Serif';-inkscape-font-specification:LiberationSerif;writing-mode:lr-tb;fill:#000000;fill-opacity:1;fill-rule:nonzero;stroke:none"
         id="text993"><tspan
           x="0 6 9.3839998 12.384 16.284 20.280001 26.280001 29.280001 35.279999 38.279999 41.279999 47.279999 50.279999 53.279999 59.279999 62.279999 68.279999 71.279999 74.279999 80.963997 86.267998 89.568001 94.260002 99.564003 103.464 107.46"
           y="0"
           sodipodi:role="line"
           id="tspan991">1: [(1.0, 4, 0.0, False)],</tspan></text></g><g
       id="g995"><text
         transform="matrix(1,0,0,-1,77.6,392.889)"
         style="font-variant:normal;font-weight:normal;font-size:12px;font-family:'Liberation Serif';-inkscape-font-specification:LiberationSerif;writing-mode:lr-tb;fill:#000000;fill-opacity:1;fill-rule:nonzero;stroke:none"
         id="text999"><tspan
           x="0 6 9.3839998 12.384 16.284 20.280001 26.280001 29.280001 35.279999 38.279999 41.279999 47.279999 50.279999 53.279999 59.279999 62.279999 68.279999 71.279999 74.279999 80.963997 86.267998 89.568001 94.260002 99.564003 103.464 107.46"
           y="0"
           sodipodi:role="line"
           id="tspan997">2: [(1.0, 1, 0.0, False)],</tspan></text></g><g
       id="g1001"><text
         transform="matrix(1,0,0,-1,77.6,379.089)"
         style="font-variant:normal;font-weight:normal;font-size:12px;font-family:'Liberation Serif';-inkscape-font-specification:LiberationSerif;writing-mode:lr-tb;fill:#000000;fill-opacity:1;fill-rule:nonzero;stroke:none"
         id="text1005"><tspan
           x="0 6 9.3839998 12.384 16.284 20.280001 26.280001 29.280001 35.279999 38.279999 41.279999 47.279999 50.279999 53.279999 59.279999 62.279999 68.279999 71.279999 74.279999 80.963997 86.267998 89.568001 94.260002 99.564003 103.464 107.46 113.244"
           y="0"
           sodipodi:role="line"
           id="tspan1003">3: [(1.0, 0, 0.0, False)]},</tspan></text></g><g
       id="g1007"><text
         transform="matrix(1,0,0,-1,59.6,351.489)"
         style="font-variant:normal;font-weight:normal;font-size:12px;font-family:'Liberation Serif';-inkscape-font-specification:LiberationSerif;writing-mode:lr-tb;fill:#000000;fill-opacity:1;fill-rule:nonzero;stroke:none"
         id="text1011"><tspan
           x="0 6 9.3839998 12.384 18.084 24.167999 27.468 30.468 34.464001 38.363998 44.363998 47.363998 53.363998 56.363998 59.363998 65.363998 68.363998 71.363998 77.363998 80.363998 86.363998 89.363998 92.363998 99.047997 104.352 107.652 112.344 117.648 121.644 125.64"
           y="0"
           sodipodi:role="line"
           id="tspan1009">1: {0: [(1.0, 0, 0.0, False)],</tspan></text></g><g
       id="g1013"><text
         transform="matrix(1,0,0,-1,77.6,337.689)"
         style="font-variant:normal;font-weight:normal;font-size:12px;font-family:'Liberation Serif';-inkscape-font-specification:LiberationSerif;writing-mode:lr-tb;fill:#000000;fill-opacity:1;fill-rule:nonzero;stroke:none"
         id="text1017"><tspan
           x="0 6 9.3839998 12.384 16.284 20.280001 26.280001 29.280001 35.279999 38.279999 41.279999 47.279999 50.279999 53.279999 59.279999 62.279999 68.279999 71.279999 74.075996 80.975998 84.972 90.972 96.167999 100.164 104.16"
           y="0"
           sodipodi:role="line"
           id="tspan1015">1: [(1.0, 5, 0.0, True)],</tspan></text></g><g
       id="g1019"><text
         transform="matrix(1,0,0,-1,77.6,323.889)"
         style="font-variant:normal;font-weight:normal;font-size:12px;font-family:'Liberation Serif';-inkscape-font-specification:LiberationSerif;writing-mode:lr-tb;fill:#000000;fill-opacity:1;fill-rule:nonzero;stroke:none"
         id="text1023"><tspan
           x="0 6 9.3839998 12.384 16.284 20.280001 26.280001 29.280001 35.279999 38.279999 41.279999 47.279999 50.279999 53.279999 59.279999 62.279999 68.279999 71.279999 74.279999 80.963997 86.267998 89.568001 94.260002 99.564003 103.464 107.46"
           y="0"
           sodipodi:role="line"
           id="tspan1021">2: [(1.0, 2, 0.0, False)],</tspan></text></g><g
       id="g1025"><text
         transform="matrix(1,0,0,-1,77.6,310.089)"
         style="font-variant:normal;font-weight:normal;font-size:12px;font-family:'Liberation Serif';-inkscape-font-specification:LiberationSerif;writing-mode:lr-tb;fill:#000000;fill-opacity:1;fill-rule:nonzero;stroke:none"
         id="text1029"><tspan
           x="0 6 9.3839998 12.384 16.284 20.280001 26.280001 29.280001 35.279999 38.279999 41.279999 47.279999 50.279999 53.279999 59.279999 62.279999 68.279999 71.279999 74.279999 80.963997 86.267998 89.568001 94.260002 99.564003 103.464 107.46 113.244"
           y="0"
           sodipodi:role="line"
           id="tspan1027">3: [(1.0, 1, 0.0, False)]},</tspan></text></g><g
       id="g1031"><text
         transform="matrix(1,0,0,-1,59.6,296.289)"
         style="font-variant:normal;font-weight:normal;font-size:12px;font-family:'Liberation Serif';-inkscape-font-specification:LiberationSerif;writing-mode:lr-tb;fill:#000000;fill-opacity:1;fill-rule:nonzero;stroke:none"
         id="text1035"><tspan
           x="0"
           y="0"
           id="tspan1033">.</tspan></text></g><g
       id="g1037"><text
         transform="matrix(1,0,0,-1,59.6,282.489)"
         style="font-variant:normal;font-weight:normal;font-size:12px;font-family:'Liberation Serif';-inkscape-font-specification:LiberationSerif;writing-mode:lr-tb;fill:#000000;fill-opacity:1;fill-rule:nonzero;stroke:none"
         id="text1041"><tspan
           x="0"
           y="0"
           id="tspan1039">.</tspan></text></g><g
       id="g1043"><text
         transform="matrix(1,0,0,-1,59.6,268.689)"
         style="font-variant:normal;font-weight:normal;font-size:12px;font-family:'Liberation Serif';-inkscape-font-specification:LiberationSerif;writing-mode:lr-tb;fill:#000000;fill-opacity:1;fill-rule:nonzero;stroke:none"
         id="text1047"><tspan
           x="0"
           y="0"
           id="tspan1045">.</tspan></text></g><g
       id="g1049"><text
         transform="matrix(1,0,0,-1,59.6,254.889)"
         style="font-variant:normal;font-weight:normal;font-size:12px;font-family:'Liberation Serif';-inkscape-font-specification:LiberationSerif;writing-mode:lr-tb;fill:#000000;fill-opacity:1;fill-rule:nonzero;stroke:none"
         id="text1053"><tspan
           x="0 6 12 15.384 18.384001 24.084 30.167999 33.467999 36.467999 40.464001 44.363998 50.363998 53.363998 59.363998 62.363998 65.363998 71.363998 77.363998 80.363998 83.363998 89.363998 92.363998 98.363998 101.364 104.364 111.048 116.352 119.652 124.344 129.64799 133.644 137.64"
           y="0"
           sodipodi:role="line"
           id="tspan1051">14: {0: [(1.0, 13, 0.0, False)],</tspan></text></g><g
       id="g1055"><text
         transform="matrix(1,0,0,-1,83.6,241.089)"
         style="font-variant:normal;font-weight:normal;font-size:12px;font-family:'Liberation Serif';-inkscape-font-specification:LiberationSerif;writing-mode:lr-tb;fill:#000000;fill-opacity:1;fill-rule:nonzero;stroke:none"
         id="text1059"><tspan
           x="0 6 9.3839998 12.384 16.284 20.280001 26.280001 29.280001 35.279999 38.279999 41.279999 47.279999 53.279999 56.279999 59.279999 65.279999 68.279999 74.279999 77.279999 80.279999 86.963997 92.267998 95.568001 100.26 105.564 109.464 113.46"
           y="0"
           sodipodi:role="line"
           id="tspan1057">1: [(1.0, 14, 0.0, False)],</tspan></text></g><g
       id="g1061"><text
         transform="matrix(1,0,0,-1,83.6,227.289)"
         style="font-variant:normal;font-weight:normal;font-size:12px;font-family:'Liberation Serif';-inkscape-font-specification:LiberationSerif;writing-mode:lr-tb;fill:#000000;fill-opacity:1;fill-rule:nonzero;stroke:none"
         id="text1065"><tspan
           x="0 6 9.3839998 12.384 16.284 20.280001 26.280001 29.280001 35.279999 38.279999 41.279999 47.279999 53.279999 56.279999 59.279999 65.279999 68.279999 74.279999 77.279999 80.075996 86.975998 90.972 96.972 102.168 106.164 110.16"
           y="0"
           sodipodi:role="line"
           id="tspan1063">2: [(1.0, 15, 1.0, True)],</tspan></text></g><g
       id="g1067"><text
         transform="matrix(1,0,0,-1,83.6,213.489)"
         style="font-variant:normal;font-weight:normal;font-size:12px;font-family:'Liberation Serif';-inkscape-font-specification:LiberationSerif;writing-mode:lr-tb;fill:#000000;fill-opacity:1;fill-rule:nonzero;stroke:none"
         id="text1071"><tspan
           x="0 6 9.3839998 12.384 16.284 20.280001 26.280001 29.280001 35.279999 38.279999 41.279999 47.279999 53.279999 56.279999 59.279999 65.279999 68.279999 74.279999 77.279999 80.279999 86.963997 92.267998 95.568001 100.26 105.564 109.464 113.46 119.244"
           y="0"
           sodipodi:role="line"
           id="tspan1069">3: [(1.0, 10, 0.0, False)]},</tspan></text></g><g
       id="g1073"><text
         transform="matrix(1,0,0,-1,59.6,185.889)"
         style="font-variant:normal;font-weight:normal;font-size:12px;font-family:'Liberation Serif';-inkscape-font-specification:LiberationSerif;writing-mode:lr-tb;fill:#000000;fill-opacity:1;fill-rule:nonzero;stroke:none"
         id="text1077"><tspan
           x="0 6 12 15.384 18.384001 24.084 30.167999 33.467999 36.467999 40.464001 44.363998 50.363998 53.363998 59.363998 62.363998 65.363998 71.363998 77.363998 80.363998 83.363998 89.363998 92.363998 95.160004 102.06 106.056 112.056 117.252 121.248 125.244"
           y="0"
           sodipodi:role="line"
           id="tspan1075">15: {0: [(1.0, 15, 0, True)],</tspan></text></g><g
       id="g1079"><text
         transform="matrix(1,0,0,-1,83.6,172.089)"
         style="font-variant:normal;font-weight:normal;font-size:12px;font-family:'Liberation Serif';-inkscape-font-specification:LiberationSerif;writing-mode:lr-tb;fill:#000000;fill-opacity:1;fill-rule:nonzero;stroke:none"
         id="text1083"><tspan
           x="0 6 9.3839998 12.384 16.284 20.280001 26.280001 29.280001 35.279999 38.279999 41.279999 47.279999 53.279999 56.279999 59.279999 65.279999 68.279999 71.075996 77.975998 81.972 87.972 93.167999 97.164001 101.16"
           y="0"
           sodipodi:role="line"
           id="tspan1081">1: [(1.0, 15, 0, True)],</tspan></text></g><g
       id="g1085"><text
         transform="matrix(1,0,0,-1,83.6,158.289)"
         style="font-variant:normal;font-weight:normal;font-size:12px;font-family:'Liberation Serif';-inkscape-font-specification:LiberationSerif;writing-mode:lr-tb;fill:#000000;fill-opacity:1;fill-rule:nonzero;stroke:none"
         id="text1089"><tspan
           x="0 6 9.3839998 12.384 16.284 20.280001 26.280001 29.280001 35.279999 38.279999 41.279999 47.279999 53.279999 56.279999 59.279999 65.279999 68.279999 71.075996 77.975998 81.972 87.972 93.167999 97.164001 101.16"
           y="0"
           sodipodi:role="line"
           id="tspan1087">2: [(1.0, 15, 0, True)],</tspan></text></g><g
       id="g1091"><text
         transform="matrix(1,0,0,-1,83.6,144.489)"
         style="font-variant:normal;font-weight:normal;font-size:12px;font-family:'Liberation Serif';-inkscape-font-specification:LiberationSerif;writing-mode:lr-tb;fill:#000000;fill-opacity:1;fill-rule:nonzero;stroke:none"
         id="text1095"><tspan
           x="0 6 9.3839998 12.384 16.284 20.280001 26.280001 29.280001 35.279999 38.279999 41.279999 47.279999 53.279999 56.279999 59.279999 65.279999 68.279999 71.075996 77.975998 81.972 87.972 93.167999 97.164001 101.064"
           y="0"
           sodipodi:role="line"
           id="tspan1093">3: [(1.0, 15, 0, True)]}</tspan></text></g><g
       id="g1097"><text
         transform="matrix(1,0,0,-1,59.6,130.689)"
         style="font-variant:normal;font-weight:normal;font-size:12px;font-family:'Liberation Serif';-inkscape-font-specification:LiberationSerif;writing-mode:lr-tb;fill:#000000;fill-opacity:1;fill-rule:nonzero;stroke:none"
         id="text1101"><tspan
           x="0"
           y="0"
           id="tspan1099">}</tspan></text></g><rect
       style="fill:#ee41d3;fill-opacity:1;stroke:none;stroke-width:0.992977;stroke-dasharray:1.98598, 1.98598"
       id="rect1147-1"
       width="67.821785"
       height="12.775694"
       x="290.49072"
       y="-357.50299"
       transform="scale(1,-1)" /><rect
       style="fill:#54c1d3;fill-opacity:1;stroke:none;stroke-width:1.61461;stroke-dasharray:3.22921, 3.22921"
       id="rect1145-7"
       width="86.699722"
       height="13.124999"
       x="288.67526"
       y="-376.22729"
       transform="scale(1,-1)" /><rect
       style="fill:#00ff00;stroke:none;stroke-width:0.936237;stroke-dasharray:1.87247, 1.87247"
       id="rect1139-6"
       width="54.855804"
       height="12.513072"
       x="288.50961"
       y="-411.54633"
       transform="scale(1,-1)" /><rect
       style="fill:#d9ff00;fill-opacity:1;stroke:none;stroke-width:1.94183;stroke-dasharray:3.88368, 3.88368"
       id="rect1139-3"
       width="235.9808"
       height="12.513072"
       x="289.25961"
       y="-393.17133"
       transform="scale(1,-1)" /><rect
       style="fill:#ffaaaa;stroke:none;stroke-width:1.15669;stroke-dasharray:2.31338, 2.31338"
       id="rect1139"
       width="83.730804"
       height="12.513072"
       x="288.00903"
       y="-427.79388"
       transform="scale(1,-1)" /><text
       xml:space="preserve"
       style="font-style:normal;font-weight:normal;font-size:14px;line-height:1.25;font-family:sans-serif;fill:#280b0b;fill-opacity:1;stroke:none;stroke-width:0.75"
       x="291.103"
       y="-418.00562"
       id="text1131"
       transform="scale(1,-1)"><tspan
         sodipodi:role="line"
         id="tspan1129"
         x="291.103"
         y="-418.00562"
         style="font-style:normal;font-variant:normal;font-weight:normal;font-stretch:normal;font-size:10px;font-family:sans-serif;-inkscape-font-specification:'sans-serif, Normal';font-variant-ligatures:normal;font-variant-caps:normal;font-variant-numeric:normal;font-variant-east-asian:normal;fill:#280b0b;stroke-width:0.75">St : état source</tspan><tspan
         sodipodi:role="line"
         x="291.103"
         y="-400.50562"
         style="font-style:normal;font-variant:normal;font-weight:normal;font-stretch:normal;font-size:10px;font-family:sans-serif;-inkscape-font-specification:'sans-serif, Normal';font-variant-ligatures:normal;font-variant-caps:normal;font-variant-numeric:normal;font-variant-east-asian:normal;fill:#280b0b;stroke-width:0.75"
         id="tspan1183">At : action</tspan><tspan
         sodipodi:role="line"
         x="291.103"
         y="-383.00562"
         style="font-style:normal;font-variant:normal;font-weight:normal;font-stretch:normal;font-size:10px;font-family:sans-serif;-inkscape-font-specification:'sans-serif, Normal';font-variant-ligatures:normal;font-variant-caps:normal;font-variant-numeric:normal;font-variant-east-asian:normal;fill:#280b0b;stroke-width:0.75"
         id="tspan1149">probabilité que l'action aboutisse à l'état cible</tspan><tspan
         sodipodi:role="line"
         x="291.103"
         y="-365.50562"
         style="font-style:normal;font-variant:normal;font-weight:normal;font-stretch:normal;font-size:10px;font-family:sans-serif;-inkscape-font-specification:'sans-serif, Normal';font-variant-ligatures:normal;font-variant-caps:normal;font-variant-numeric:normal;font-variant-east-asian:normal;fill:#280b0b;stroke-width:0.75"
         id="tspan1151">St+1 : état cible</tspan><tspan
         sodipodi:role="line"
         x="291.103"
         y="-348.00562"
         style="font-style:normal;font-variant:normal;font-weight:normal;font-stretch:normal;font-size:10px;font-family:sans-serif;-inkscape-font-specification:'sans-serif, Normal';font-variant-ligatures:normal;font-variant-caps:normal;font-variant-numeric:normal;font-variant-east-asian:normal;fill:#280b0b;stroke-width:0.75"
         id="tspan1153">récompense</tspan><tspan
         sodipodi:role="line"
         x="291.103"
         y="-330.50562"
         style="font-style:normal;font-variant:normal;font-weight:normal;font-stretch:normal;font-size:10px;font-family:sans-serif;-inkscape-font-specification:'sans-serif, Normal';font-variant-ligatures:normal;font-variant-caps:normal;font-variant-numeric:normal;font-variant-east-asian:normal;fill:#280b0b;stroke-width:0.75"
         id="tspan1155">état final OUI/NON</tspan></text><rect
       style="fill:#002200;fill-opacity:0.293303;stroke:none;stroke-width:0.960338;stroke-dasharray:1.92068, 1.92068"
       id="rect1258-8"
       width="96.375"
       height="14.999999"
       x="289.5"
       y="-340.60229"
       transform="scale(1,-1)" /><rect
       style="fill:#002200;fill-opacity:0.293303;stroke:none;stroke-width:0.981373;stroke-dasharray:1.96275, 1.96275"
       id="rect1258-8-2"
       width="27.542747"
       height="54.811085"
       x="150.76387"
       y="-432.0047"
       transform="scale(1,-1)" /></g></svg>
